<svg width="15" height="15" viewBox="0 0 15 15" fill="none" xmlns="http://www.w3.org/2000/svg">
<path d="M14.0824 13.5195L10.2948 9.72674C11.2609 8.79382 11.8594 7.50771 11.8594 6.08931C11.8594 3.24711 9.4582 0.935059 6.50642 0.935059C3.55463 0.935059 1.15344 3.24711 1.15344 6.08931C1.15344 8.93151 3.55463 11.2436 6.50642 11.2436C7.80209 11.2436 8.99121 10.7976 9.91804 10.0576L13.7148 13.8597C13.7648 13.91 13.8316 13.9351 13.8986 13.9351C13.9623 13.9351 14.0258 13.9122 14.0753 13.8666C14.1767 13.7726 14.1798 13.6172 14.0824 13.5195ZM6.50642 10.7527C3.83579 10.7527 1.66325 8.66079 1.66325 6.08931C1.66325 3.51783 3.83579 1.42594 6.50642 1.42594C9.17704 1.42594 11.3496 3.51783 11.3496 6.08931C11.3496 8.66079 9.17678 10.7527 6.50642 10.7527Z" fill="#828282" stroke="#828282" stroke-width="0.5"/>
</svg>
